<svg version="1.1" id="Layer_1" xmlns="http://www.w3.org/2000/svg" xmlns:xlink="http://www.w3.org/1999/xlink" x="0px" y="0px"
	 width="100%" viewBox="0 0 500 500" enable-background="new 0 0 500 500" xml:space="preserve">
<path fill="#51ABB2" opacity="1.000000" stroke="none" 
	d="
M1.000000,181.000000 
	C1.000000,120.681602 1.000000,60.863213 1.000000,1.022409 
	C167.610107,1.022409 334.220245,1.022409 500.915161,1.022409 
	C500.915161,167.568466 500.915161,334.136993 500.915161,500.852753 
	C334.333435,500.852753 167.666733,500.852753 1.000000,500.852753 
	C1.000000,394.446320 1.000000,287.973145 1.000000,181.000000 
M57.085121,284.382874 
	C64.154411,311.309357 76.074295,335.839600 93.172470,357.854187 
	C94.299141,359.304779 94.835365,361.419861 95.098831,363.302490 
	C97.204613,378.349304 106.078140,387.158508 120.990585,389.329285 
	C123.431786,389.684601 125.888199,391.243164 127.939438,392.777740 
	C176.130997,428.831665 229.878738,442.403656 289.111267,431.289337 
	C383.465637,413.584839 451.069000,330.855591 451.064178,234.258942 
	C451.061951,189.713943 437.788086,149.358582 410.680267,114.334366 
	C370.009705,61.786621 315.928497,34.874058 249.164505,35.045254 
	C194.473175,35.185490 147.156464,55.026546 109.304016,93.930748 
	C57.571697,147.100449 40.708107,211.053940 57.085121,284.382874 
z"/>
<path fill="#ECDBC4" opacity="1.000000" stroke="none" 
	d="
M57.007889,283.976837 
	C40.708107,211.053940 57.571697,147.100449 109.304016,93.930748 
	C147.156464,55.026546 194.473175,35.185490 249.164505,35.045254 
	C315.928497,34.874058 370.009705,61.786621 410.680267,114.334366 
	C437.788086,149.358582 451.061951,189.713943 451.064178,234.258942 
	C451.069000,330.855591 383.465637,413.584839 289.111267,431.289337 
	C229.878738,442.403656 176.130997,428.831665 127.939438,392.777740 
	C125.888199,391.243164 123.431786,389.684601 120.990585,389.329285 
	C106.078140,387.158508 97.204613,378.349304 95.098831,363.302490 
	C94.835365,361.419861 94.299141,359.304779 93.172470,357.854187 
	C76.074295,335.839600 64.154411,311.309357 57.007889,283.976837 
M106.617050,337.811249 
	C114.340233,334.590057 117.083031,334.825317 119.892731,338.949921 
	C123.327538,343.992157 125.908806,344.886230 131.564117,342.695709 
	C137.594666,340.359894 141.877548,336.224091 144.282227,329.843109 
	C144.265244,329.628784 144.248260,329.414459 144.231277,329.200134 
	C144.180084,329.490906 144.128906,329.781708 143.362625,329.985077 
	C125.582062,342.803986 110.057747,332.573212 105.153221,319.791992 
	C100.042496,306.473389 101.741714,293.995941 110.338638,282.536316 
	C111.543724,280.929962 112.802864,279.364166 114.036980,277.779572 
	C98.961624,280.235382 86.194420,277.654358 75.595322,265.953430 
	C73.034439,261.316833 70.473557,256.680267 67.336662,251.000763 
	C70.757118,285.100708 81.883904,314.989258 101.264221,342.072815 
	C102.964394,340.585663 104.436569,339.297913 106.617050,337.811249 
M429.692657,260.172241 
	C431.326111,261.192474 432.959534,262.212738 435.456421,263.772308 
	C443.577850,187.369934 419.892090,124.704453 356.315125,81.490364 
	C292.822418,38.333546 225.436417,37.447327 158.305634,74.215157 
	C127.073570,91.321091 103.767555,117.070259 87.222946,148.687347 
	C73.982674,173.989792 67.592628,201.078934 66.484688,230.531311 
	C69.140656,225.697083 71.320824,221.728867 74.142624,217.312027 
	C79.882126,212.023453 86.100769,208.222946 94.750038,211.179138 
	C95.128365,211.222076 95.506699,211.265015 95.885017,211.307968 
	C95.681259,210.788193 95.477493,210.268433 95.026154,209.113525 
	C89.713501,202.315735 85.619766,194.991135 85.130402,186.119919 
	C84.215378,169.532166 98.635658,155.712418 117.466484,155.123093 
	C129.078186,154.759689 138.105621,161.143906 141.610535,172.186096 
	C142.026764,173.497467 142.494705,174.792435 143.004883,176.289261 
	C144.697983,172.175659 145.834595,168.311386 147.795288,164.924149 
	C150.356400,160.499680 156.513901,158.310669 160.769287,159.643982 
	C164.936508,160.949661 167.654907,165.175690 167.791534,170.680130 
	C167.832718,172.339432 167.703827,174.002960 167.441360,175.918457 
	C167.673798,175.996384 167.906250,176.074310 168.934631,176.209610 
	C174.334320,175.132767 176.601456,178.863861 178.841171,183.357147 
	C180.775284,179.892975 182.413422,176.958939 184.025070,174.072342 
	C174.863342,167.049057 172.842346,155.574921 179.207016,148.169479 
	C185.805191,140.492340 200.499069,139.059265 206.709274,145.487198 
	C214.188065,153.228195 211.947800,164.275070 200.676346,173.727036 
	C207.182678,183.664062 200.971451,195.175323 204.535858,205.850159 
	C205.982910,202.161957 206.552719,198.410995 207.080902,194.654175 
	C209.656830,176.332642 220.376175,163.350357 236.029922,159.612564 
	C248.014297,156.750931 257.374359,161.043228 262.987213,171.937408 
	C263.295197,172.535172 263.870605,172.995178 264.077301,173.235413 
	C266.412384,159.034943 268.213928,144.828400 271.341461,130.920029 
	C272.359985,126.390518 276.146301,121.796440 279.889526,118.719429 
	C286.317902,113.435150 294.522583,116.970726 295.838837,125.217125 
	C296.421295,128.866318 295.877563,132.770554 295.384460,136.498077 
	C294.684265,141.791000 293.558899,147.027679 292.424957,153.348923 
	C306.927368,139.653915 317.761566,137.660004 325.246063,146.640274 
	C328.898682,151.022842 329.694794,156.270844 328.933258,161.724167 
	C327.521271,171.835495 318.917145,174.316162 311.246307,178.005386 
	C316.077759,179.531174 320.269318,177.711288 324.401367,175.920135 
	C328.016052,174.353241 329.965637,171.766006 330.302063,167.499191 
	C330.744934,161.881332 331.459900,156.145966 333.146912,150.805084 
	C334.764618,145.683533 337.275665,140.657639 340.329224,136.235352 
	C342.760620,132.714020 347.003296,131.212051 351.495270,132.598938 
	C355.730347,133.906525 357.260956,137.563080 357.842743,141.430115 
	C358.382080,145.015152 358.288574,148.705505 358.339966,152.351395 
	C358.411377,157.417419 358.357941,162.485199 358.357941,167.552246 
	C358.784363,167.782928 359.210785,168.013626 359.637207,168.244308 
	C360.836853,166.367340 362.670807,164.626358 363.108246,162.585968 
	C364.115234,157.889069 363.935364,152.910721 365.169861,148.296143 
	C366.869934,141.941467 368.832611,135.511780 371.805695,129.687424 
	C374.335052,124.732315 380.525421,123.011139 385.231140,124.435677 
	C389.658173,125.775841 392.538605,129.825531 392.798462,135.677185 
	C392.930481,138.649948 392.593567,141.657700 392.296387,144.632431 
	C391.654633,151.055969 390.901672,157.468384 390.194244,163.885361 
	C390.633453,163.981430 391.072693,164.077484 391.511932,164.173553 
	C392.621185,161.998245 393.855560,159.876724 394.817810,157.638214 
	C398.759125,148.469452 402.067841,147.275635 411.210388,152.263657 
	C411.860504,153.625336 412.510620,154.987015 413.032776,157.248886 
	C410.978363,166.500916 409.612549,175.984589 406.607941,184.917007 
	C404.841888,190.167389 401.491058,196.868591 397.054321,198.813141 
	C388.496460,202.563919 387.337860,208.794327 386.555389,216.279068 
	C386.298859,218.733109 385.435852,221.147156 384.667267,223.520233 
	C381.130554,234.439758 374.654938,242.481003 363.227539,246.016937 
	C344.900543,251.687775 329.336914,241.250748 327.862183,222.087555 
	C327.727295,220.335236 327.680969,218.576096 327.575775,216.463211 
	C325.679077,217.318802 324.211243,218.027939 322.707855,218.651443 
	C313.201660,222.594116 306.170715,220.628647 299.973602,212.322678 
	C299.082428,211.128250 298.181458,209.941116 297.141052,208.248276 
	C296.863373,208.070389 296.585663,207.892487 296.307983,207.714584 
	C296.380920,208.277145 296.453888,208.839706 296.557648,210.215103 
	C297.023163,217.072525 296.043823,223.420624 289.134888,226.836502 
	C280.875824,230.919891 273.399933,229.985611 267.676971,222.135773 
	C249.187698,241.655304 236.905685,244.289352 217.358032,233.006973 
	C213.727173,239.385117 209.760834,245.457047 202.501251,248.440384 
	C194.677063,251.655762 187.922119,250.152466 182.144379,244.171646 
	C166.841614,262.329834 155.177704,264.112976 141.639969,250.915833 
	C138.601578,256.077026 135.521240,261.309448 132.140961,267.051361 
	C155.931808,258.591644 172.671875,266.591736 183.623184,289.528961 
	C185.037140,283.607849 185.912918,278.763519 187.359894,274.096252 
	C192.196869,258.494446 202.221863,248.356232 218.652588,245.321365 
	C232.608261,242.743637 243.205048,249.614532 244.567032,262.489685 
	C244.950287,266.112610 243.809967,269.896637 243.339630,273.849243 
	C261.470612,272.672302 267.797272,284.789276 271.827942,299.555542 
	C272.869995,293.256317 275.196350,287.556030 268.894592,281.969635 
	C263.170898,276.895691 265.532715,270.362427 272.247528,266.379456 
	C274.781738,264.876282 276.608826,261.694580 278.016663,258.903900 
	C279.716248,255.534912 280.233459,251.562637 281.975616,248.223541 
	C284.415192,243.547714 290.708221,241.053421 295.167297,242.336136 
	C299.534729,243.592499 302.097412,247.840988 302.107452,253.845139 
	C302.110168,255.462128 302.107880,257.079132 302.107880,257.245331 
	C305.818512,259.321808 309.268066,260.258911 311.032166,262.514313 
	C312.853302,264.842590 313.035370,268.452942 314.052338,271.901947 
	C319.451324,261.092041 327.384674,253.546692 339.010773,250.245468 
	C352.898071,246.302155 364.559204,252.990509 367.945862,266.971344 
	C368.175995,267.921478 368.624054,268.818848 369.349640,270.748352 
	C371.031494,266.247345 372.020203,262.694977 373.638092,259.457001 
	C377.182953,252.362411 380.274567,244.846832 384.984558,238.580460 
	C390.323486,231.477341 400.873596,230.618759 408.107269,235.187317 
	C414.519531,239.237091 415.587311,246.053665 410.678223,251.749634 
	C409.605743,252.994064 408.449707,254.166473 407.090607,255.632645 
	C410.349823,259.591309 413.447845,263.354156 416.657593,267.252686 
	C421.821014,259.494415 422.514801,259.099579 429.692657,260.172241 
M147.291519,380.774597 
	C145.860855,381.747314 144.430191,382.720062 142.171799,384.255585 
	C201.992188,423.592590 264.100281,430.305939 329.329193,402.544220 
	C371.845367,384.449097 424.163818,326.466583 425.375977,297.060242 
	C423.486145,299.396759 421.805847,301.644501 419.943329,303.729431 
	C418.063904,305.833344 416.003632,307.775726 413.177704,310.113708 
	C399.714233,317.859833 386.284821,321.177643 372.823914,309.266479 
	C366.517822,318.231354 359.245178,325.576416 348.679871,328.762970 
	C337.640015,332.092621 327.746338,330.184845 319.299194,322.003204 
	C308.139191,344.518066 284.202423,349.389435 274.389343,330.406464 
	C267.729675,332.840942 267.848297,332.918915 264.064911,338.674408 
	C262.158020,341.575256 260.054688,344.497253 257.486206,346.788727 
	C239.916138,362.464172 216.767197,357.350739 210.491928,335.675110 
	C210.227676,334.762390 209.476578,333.990662 208.325089,332.151520 
	C208.325089,339.038177 208.772644,344.676086 208.225555,350.215759 
	C207.284058,359.749084 201.986862,365.419769 193.623520,366.851257 
	C185.661850,368.214020 179.520294,364.954346 175.160080,356.354706 
	C172.828354,351.755920 171.287323,346.756165 169.141266,341.307190 
	C166.093170,356.968842 160.254120,370.512939 147.291519,380.774597 
M197.770111,204.072449 
	C197.798965,201.747314 197.826553,199.422165 197.856934,197.097046 
	C197.926285,191.789566 198.328659,186.454453 197.889557,181.189438 
	C197.733292,179.315826 195.822021,176.562469 194.191711,176.117783 
	C192.457123,175.644699 189.509155,176.887863 188.166504,178.361542 
	C186.235306,180.481155 184.624924,183.348068 184.030777,186.141296 
	C182.546799,193.117874 181.635803,200.221848 180.639618,207.295090 
	C179.648834,214.329895 175.912750,218.707779 169.352982,220.191956 
	C163.599976,221.493591 159.386459,219.203323 157.574310,213.789673 
	C155.092346,206.375015 157.084747,198.770294 162.185867,196.744446 
	C164.645737,195.767517 167.307709,195.304779 169.782852,194.359604 
	C173.217377,193.048096 174.381729,189.021164 173.287735,184.591019 
	C172.177185,180.093887 169.246841,181.800232 166.612411,182.258072 
	C165.181610,182.506729 163.765106,182.837463 161.366196,183.332642 
	C161.791641,178.959015 162.612457,175.218628 162.344925,171.557770 
	C162.177078,169.260910 160.926559,165.952682 159.183472,165.101364 
	C156.096207,163.593582 152.863068,165.370071 151.346970,168.558731 
	C150.153854,171.068100 149.555450,173.897324 148.950317,176.641251 
	C147.775803,181.966934 145.297028,186.165787 140.172180,188.655304 
	C138.780304,189.331467 136.714310,191.202362 136.917068,192.063690 
	C137.401886,194.123383 138.779831,196.187256 140.329865,197.705658 
	C141.346863,198.701950 143.292908,198.749878 144.913895,199.250641 
	C144.090302,207.224533 143.286316,214.997665 142.484879,222.771072 
	C141.690155,230.479294 141.818253,238.097244 145.066345,245.327026 
	C148.559662,253.102722 154.889679,255.819107 163.105499,253.240906 
	C170.251068,250.998566 174.854858,245.964294 178.272720,239.598953 
	C179.456406,237.394455 180.615143,235.176559 182.039505,232.484253 
	C183.063034,234.750336 183.659637,236.297928 184.435226,237.749908 
	C188.226974,244.848404 194.845047,247.373215 201.548950,242.969666 
	C205.765488,240.199966 208.932800,235.593765 211.991409,231.389877 
	C213.837311,228.852783 214.573273,225.508118 216.022034,222.009354 
	C221.669342,230.867569 228.807037,235.696579 239.205750,234.257889 
	C247.354630,233.130447 254.035034,229.306885 259.322144,223.227966 
	C262.820953,219.205154 265.744720,214.682220 269.144928,210.087234 
	C269.634216,211.757263 270.003357,213.176544 270.464813,214.565155 
	C272.821350,221.656464 277.104187,224.824783 282.737549,223.677460 
	C289.372955,222.326019 292.121277,218.142273 291.019897,210.144852 
	C290.387238,205.551407 288.588867,201.093079 288.212433,196.500381 
	C288.019867,194.151016 289.801880,191.639816 290.691467,189.201767 
	C292.543243,190.783966 294.948090,192.034698 296.135101,194.015320 
	C298.859100,198.560287 300.614594,203.698273 303.442108,208.165894 
	C308.619934,216.347244 315.980560,217.767197 323.885376,212.160355 
	C326.801453,210.092010 329.331146,207.243835 331.422424,204.312790 
	C333.576996,201.293076 334.982727,197.739075 336.996918,193.881058 
	C337.512909,195.035446 337.816589,195.727249 338.130188,196.414551 
	C342.140991,205.204315 349.684448,207.730881 358.312012,203.177322 
	C364.412201,199.957672 367.169250,194.441895 368.788208,188.091553 
	C369.228088,186.366089 369.983643,184.721085 370.594360,183.039154 
	C371.082581,183.169968 371.570801,183.300766 372.059021,183.431564 
	C374.323120,190.656952 372.862488,197.563736 369.178864,204.047455 
	C361.456299,217.640335 347.997925,218.875427 338.377441,206.880859 
	C337.852997,207.223572 337.165222,207.459824 336.804047,207.941132 
	C331.640625,214.821548 332.164642,222.265869 334.979645,229.766403 
	C337.657410,236.901321 342.786530,241.287827 350.521332,242.039658 
	C364.769867,243.424698 375.620575,236.229294 379.720673,221.839417 
	C382.027130,213.744705 383.003479,205.270996 384.588135,196.920303 
	C389.940735,198.925720 393.935577,196.277557 397.301941,192.177307 
	C398.448547,190.780762 399.630249,189.192505 400.101501,187.498642 
	C402.768768,177.911636 405.318146,168.287994 407.610870,158.606522 
	C407.842712,157.627548 406.192902,155.268600 405.238312,155.163239 
	C403.826782,155.007431 401.704041,155.900177 400.869781,157.057175 
	C399.242767,159.313797 398.453064,162.152985 397.033112,164.585449 
	C395.204071,167.718750 393.274078,171.884827 388.959656,170.652985 
	C384.358826,169.339386 384.968750,164.614761 385.184784,160.847260 
	C385.413025,156.867661 386.227997,152.925430 386.602142,148.949493 
	C387.037292,144.325974 387.867401,139.628738 387.446564,135.063004 
	C386.893158,129.058746 381.379395,127.099037 377.040314,131.326660 
	C374.779510,133.529434 372.933838,136.736084 372.194244,139.801422 
	C370.679962,146.077179 370.157379,152.585358 368.989929,158.954483 
	C368.368469,162.344971 368.136688,166.397552 366.112366,168.774368 
	C364.082275,171.157928 360.099121,172.608383 356.852539,172.847672 
	C355.640533,172.936981 353.690430,168.582489 352.826935,166.003143 
	C352.178650,164.066635 352.727203,161.728775 352.746368,159.569626 
	C352.796600,153.916260 353.312408,148.217789 352.768066,142.622375 
	C352.236725,137.160645 347.796356,135.698471 343.964203,139.658096 
	C341.745941,141.950104 339.804657,145.060043 339.064819,148.122269 
	C337.352203,155.210861 336.692566,162.549698 335.093201,169.671906 
	C334.444275,172.561584 333.101776,175.902664 330.959076,177.730072 
	C325.629150,182.275742 319.049652,184.259018 311.971069,183.986526 
	C308.450775,183.851013 305.791016,182.180420 305.363525,178.430710 
	C304.961365,174.902985 307.071716,173.024689 310.261383,171.881577 
	C313.213196,170.823715 316.263336,169.746582 318.858063,168.048309 
	C323.952911,164.713730 325.384186,158.351334 322.825256,152.496429 
	C320.651306,147.522324 315.549591,145.417496 309.383850,146.865692 
	C302.504211,148.481567 298.637573,153.312805 296.346130,159.497559 
	C294.851868,163.530731 294.355865,167.946671 292.732056,171.912445 
	C292.102386,173.450241 289.597992,174.220383 287.947662,175.340240 
	C287.121521,173.919098 285.599030,172.498917 285.597107,171.076675 
	C285.590790,166.430176 285.868805,161.744141 286.529999,157.144104 
	C287.878021,147.766022 289.787750,138.462616 290.902618,129.061646 
	C291.157440,126.912872 289.393372,122.767242 288.091675,122.566406 
	C285.578064,122.178581 281.738861,123.147179 280.246521,125.000618 
	C277.748779,128.102737 275.716217,132.201981 275.143921,136.123260 
	C272.766052,152.415833 270.786926,168.775986 269.094208,185.156067 
	C267.828888,197.400223 253.960724,209.295547 241.803726,207.949539 
	C231.899872,206.852997 225.798203,193.861435 231.427338,185.714142 
	C233.490677,182.727814 236.493622,180.991989 240.043625,182.415085 
	C243.473648,183.790085 243.419312,186.975204 242.633865,190.113113 
	C241.418716,194.967667 242.829620,197.077179 247.575256,195.798523 
	C251.132568,194.840027 255.069443,192.590714 257.224548,189.709702 
	C261.264130,184.309357 260.224243,178.008728 257.268585,172.210022 
	C254.526932,166.831100 249.835434,164.094955 243.912933,164.065048 
	C231.760574,164.003662 223.032318,169.966309 217.192932,180.322266 
	C213.177612,187.443298 211.740326,195.221619 211.759399,203.378754 
	C211.769745,207.803421 209.089203,210.516968 204.764313,211.098862 
	C200.331604,211.695282 198.502838,208.894775 197.770111,204.072449 
M358.768219,285.138672 
	C360.047607,282.452637 361.767883,279.885529 362.530029,277.059967 
	C365.814331,264.883484 357.577026,253.697830 345.885162,254.409897 
	C338.874695,254.836823 332.640564,257.433777 327.440582,262.293701 
	C319.323639,269.879730 315.758881,279.492767 314.967651,290.324188 
	C314.440216,297.544434 308.882721,302.963562 301.621490,303.239136 
	C295.906647,303.455994 292.511902,300.310455 291.465057,293.828186 
	C289.959778,284.506836 292.194794,280.526703 300.238312,278.224823 
	C301.677643,277.812927 303.191833,277.588379 304.557739,277.009155 
	C307.762848,275.650024 309.044800,271.219116 307.780701,267.020905 
	C306.594330,263.080841 303.962036,264.332581 301.377441,264.966705 
	C299.838959,265.344147 298.255127,265.536865 295.818726,265.966614 
	C296.257385,261.562500 297.171234,257.780151 296.805634,254.125748 
	C296.569458,251.765167 294.474121,247.741440 293.185455,247.731003 
	C290.716003,247.710999 287.825195,249.606445 285.885162,251.501495 
	C284.533936,252.821396 284.275726,255.427734 283.878357,257.525543 
	C282.633972,264.094574 280.057770,269.470184 273.229523,272.075226 
	C272.223480,272.459015 271.156097,275.901733 271.744354,276.650116 
	C273.621429,279.038147 276.265289,280.823425 279.306244,283.437378 
	C276.506226,292.507599 281.670074,305.863068 267.994598,311.705292 
	C266.704193,305.253784 266.112305,299.224579 264.254272,293.614716 
	C259.743774,279.996429 248.676376,275.427917 235.745193,281.569183 
	C232.642120,283.042877 229.659134,285.103119 227.164276,287.467010 
	C215.160858,298.840393 210.323776,321.202759 216.285217,336.627625 
	C220.763702,348.215454 231.655136,353.241943 243.448471,349.168365 
	C251.992599,346.217102 257.494354,339.973083 261.771423,332.357269 
	C262.553772,330.964233 263.349915,329.251740 264.619812,328.520111 
	C268.687775,326.176422 272.981140,324.223969 277.375244,322.026642 
	C277.818848,323.326782 278.317596,325.053192 278.988129,326.710083 
	C282.897827,336.371429 290.394409,339.376678 299.936554,335.153381 
	C305.855499,332.533722 309.876465,327.952148 312.778870,322.361603 
	C314.666718,318.725372 316.196075,314.903015 318.131195,310.621613 
	C319.024231,312.151245 319.616272,313.259216 320.294281,314.311798 
	C326.274719,323.595825 335.164734,327.558563 345.667145,323.950653 
	C351.573883,321.921570 357.304749,318.219635 361.940094,313.985260 
	C366.354828,309.952454 369.242828,304.248413 372.719513,299.394379 
	C379.745819,310.396515 386.013824,313.394958 397.746033,311.045959 
	C407.229950,309.147186 415.148621,304.217316 419.642487,295.863647 
	C423.916840,287.918030 426.577484,279.072632 429.530182,270.479401 
	C430.013763,269.072113 428.855072,266.086456 427.560028,265.294586 
	C424.915314,263.677429 423.736359,266.021759 422.465057,268.243958 
	C420.872803,271.027252 418.614990,273.429779 416.582672,276.077118 
	C412.235077,270.535431 408.818665,266.035065 405.246155,261.662262 
	C400.337433,255.653870 400.327423,254.910172 405.902435,249.298523 
	C409.871735,245.303146 409.105072,241.254379 403.916779,238.812408 
	C398.815796,236.411545 391.757751,237.652557 388.093018,242.554733 
	C384.948608,246.760925 382.404755,251.549896 380.337463,256.397614 
	C376.820129,264.645630 374.100494,273.231628 370.654449,281.512787 
	C365.828766,293.109436 352.586365,301.216003 340.747986,300.173706 
	C337.127594,299.854950 333.898956,298.976440 334.146088,293.871918 
	C343.579926,294.750366 352.012360,293.235107 358.768219,285.138672 
M109.857574,342.071075 
	C100.782814,348.321716 97.738029,359.656647 102.257484,370.364258 
	C106.553917,380.543488 117.033592,385.993347 128.000076,383.571716 
	C145.325317,379.745911 155.525131,368.335724 160.989120,352.079712 
	C164.914291,340.401886 165.690170,328.304779 165.549469,316.089569 
	C165.523621,313.845551 166.009491,311.595673 166.259155,309.348480 
	C166.890839,309.310699 167.522522,309.272888 168.154205,309.235077 
	C168.749298,310.804596 169.577332,312.328674 169.894241,313.952515 
	C170.722641,318.197052 170.997635,322.571625 172.088364,326.738556 
	C174.562958,336.192047 176.877808,345.744110 180.270813,354.879791 
	C182.397598,360.606171 187.316528,362.599182 192.281799,361.803070 
	C197.746002,360.927002 201.790665,357.095123 202.807434,351.212585 
	C203.340805,348.126831 203.181519,344.914154 203.252182,341.756958 
	C203.509125,330.276764 202.968460,318.711334 204.227234,307.343994 
	C205.105042,299.417236 207.712509,291.450775 210.897568,284.085999 
	C213.319229,278.486481 217.987701,274.970154 225.435852,276.851746 
	C232.354477,278.599579 239.621841,271.493042 239.517532,264.161865 
	C239.399780,255.886993 233.833664,250.409927 225.170029,250.043854 
	C212.011856,249.487869 199.675369,257.718018 193.993744,271.010620 
	C189.297424,281.998047 188.385391,293.532166 189.416107,305.304993 
	C189.590363,307.295471 190.016037,309.304840 189.856506,311.267334 
	C189.769836,312.333435 188.695175,313.319183 188.066162,314.341187 
	C187.329117,313.581909 186.395691,312.929779 185.907471,312.034760 
	C185.364380,311.039215 185.347641,309.770752 184.893692,308.710175 
	C181.116302,299.884979 177.924164,290.729584 173.294373,282.372406 
	C169.023972,274.664001 161.797424,269.661652 152.677673,269.113953 
	C138.454559,268.259735 126.162804,273.133087 116.253777,283.420044 
	C110.876892,289.002045 107.973801,295.880280 107.601616,303.658478 
	C107.240707,311.201019 108.820076,318.284637 113.834846,324.181976 
	C118.584503,329.767548 124.729057,331.703033 131.821991,329.950897 
	C138.264923,328.359344 142.864166,324.416382 144.537735,317.874847 
	C145.262146,315.043274 146.340942,311.502441 141.743240,310.257904 
	C136.948654,308.960083 134.542892,305.637238 134.694550,300.828827 
	C134.835052,296.373688 138.030731,292.777008 142.642502,291.883484 
	C148.434082,290.761353 152.719070,293.881927 153.946976,300.988159 
	C156.530609,315.940430 153.098190,329.649506 142.980164,340.923309 
	C139.677307,344.603485 134.272125,346.898132 129.394638,348.529419 
	C124.016975,350.327972 118.720093,347.986725 116.514763,343.517578 
	C114.887856,340.220581 113.077400,340.530090 109.857574,342.071075 
M113.613098,225.083786 
	C114.469261,230.481537 112.664963,234.704483 107.672531,237.047256 
	C103.341675,239.079544 98.919670,239.155930 95.084282,235.717545 
	C91.345528,232.365768 90.267990,226.391388 91.999344,221.484314 
	C92.586227,219.820953 93.066940,216.981155 92.220032,216.229462 
	C91.074562,215.212784 88.478424,215.204849 86.730873,215.650711 
	C84.547493,216.207748 82.382507,217.398178 80.598587,218.807541 
	C78.673180,220.328705 76.895187,222.225266 75.572929,224.290955 
	C65.672646,239.757553 75.279320,266.118286 92.745033,271.665100 
	C106.554848,276.050873 123.949898,269.885498 132.003540,257.750641 
	C140.212723,245.381454 139.191727,228.346359 129.238327,216.936462 
	C124.976944,212.051483 119.861931,207.897583 115.732880,202.915771 
	C113.177460,199.832626 111.295723,195.976761 109.948631,192.171463 
	C108.784332,188.882507 109.654373,185.165237 113.163452,183.599579 
	C115.315971,182.639160 119.324692,182.030045 120.355095,183.181854 
	C122.307854,185.364700 122.718781,188.927368 123.768379,191.917465 
	C124.391808,193.693497 124.578094,196.482925 125.746323,196.983414 
	C127.112137,197.568542 129.870636,196.711090 131.093613,195.521774 
	C137.957230,188.847122 139.464294,178.585388 135.184372,170.240234 
	C131.202835,162.476883 123.781471,159.259033 113.540848,160.855804 
	C92.954712,164.065704 84.149239,182.600037 95.103569,200.285477 
	C97.959511,204.896286 102.192108,208.633408 105.537491,212.968536 
	C108.345924,216.607834 110.783401,220.533386 113.613098,225.083786 
M205.043625,152.744247 
	C203.303223,147.578079 199.454422,146.120285 194.426270,146.652756 
	C187.376328,147.399323 182.279053,150.727997 181.089005,155.419434 
	C179.642456,161.121948 182.096741,167.486725 186.636871,169.002869 
	C192.328156,170.903427 197.595001,169.291016 202.093079,165.761459 
	C206.059296,162.649216 206.619492,158.227432 205.043625,152.744247 
M166.283844,200.802429 
	C160.000992,202.078918 161.985992,207.058228 162.337204,210.749008 
	C162.491608,212.371536 164.936523,214.885681 166.535370,215.044662 
	C170.661041,215.454834 174.010086,213.288223 174.934998,208.988205 
	C175.707336,205.397491 175.797272,201.659988 176.225204,197.652451 
	C172.665771,198.781952 169.851761,199.674927 166.283844,200.802429 
M301.411987,298.079193 
	C310.015625,296.563171 310.098633,292.269348 310.183350,280.508118 
	C307.230286,281.456177 304.272034,282.470398 301.273987,283.348450 
	C298.784363,284.077545 296.363739,284.846100 296.712463,288.131561 
	C297.098755,291.771484 294.987671,296.440979 301.411987,298.079193 
M106.203293,231.996750 
	C109.560669,229.663528 109.268745,226.408752 107.435417,223.676193 
	C104.840851,219.809006 101.564087,216.399521 98.673752,212.908966 
	C98.036324,216.842041 97.186150,220.134735 97.065468,223.453964 
	C96.969894,226.082565 96.960922,229.419296 98.428581,231.175140 
	C99.587769,232.561905 103.051109,232.022644 106.203293,231.996750 
M129.860031,202.840240 
	C127.848961,202.973694 125.837898,203.107132 123.574005,203.257370 
	C128.426071,208.675919 132.870941,213.639740 137.315826,218.603577 
	C136.393036,212.383163 143.403290,204.986572 134.459457,200.379044 
	C133.155380,201.147476 131.878174,201.900085 129.860031,202.840240 
M215.948944,293.575134 
	C218.569809,289.864105 221.190674,286.153046 223.844620,282.395172 
	C216.365219,280.215851 208.527695,294.581024 209.767181,308.092865 
	C211.756256,303.333557 213.662506,298.772430 215.948944,293.575134 
M149.788696,307.466797 
	C149.099976,304.603851 148.722580,301.605560 147.566177,298.945984 
	C147.116623,297.912079 144.784515,296.975128 143.536636,297.208099 
	C142.227768,297.452454 140.693222,298.961639 140.188400,300.275757 
	C139.765793,301.375793 140.372116,303.209930 141.129669,304.295624 
	C141.574387,304.933014 143.273865,304.569824 144.284332,304.970795 
	C145.421478,305.421936 146.407852,306.244507 147.479935,306.871094 
	C148.219070,307.303131 148.992401,307.676605 149.788696,307.466797 
M237.811478,197.283127 
	C237.479034,194.132736 237.146576,190.982330 236.786545,187.570648 
	C233.568726,191.105072 234.345779,195.059586 236.147720,198.793167 
	C238.115921,202.871262 241.835419,203.242218 246.357788,202.922424 
	C243.220001,200.988831 240.737137,199.458817 237.811478,197.283127 
M118.052376,194.097992 
	C118.198929,193.294800 118.536758,192.470184 118.449646,191.693176 
	C118.298271,190.342987 117.913010,189.013275 117.506126,187.712418 
	C117.482864,187.638031 115.981232,187.734070 115.857033,188.035172 
	C115.388161,189.171844 114.900665,190.450821 114.996864,191.629440 
	C115.097961,192.867981 115.821457,194.071930 116.401230,195.226608 
	C116.451561,195.326859 117.458733,194.946686 118.052376,194.097992 
M292.729126,154.508423 
	C292.729126,154.508423 292.427368,154.348511 292.427368,154.348511 
	C292.427368,154.348511 292.483704,154.703766 292.729126,154.508423 
z"/>
<path fill="#E0653A" opacity="1.000000" stroke="none" 
	d="
M167.652847,175.664551 
	C167.703827,174.002960 167.832718,172.339432 167.791534,170.680130 
	C167.654907,165.175690 164.936508,160.949661 160.769287,159.643982 
	C156.513901,158.310669 150.356400,160.499680 147.795288,164.924149 
	C145.834595,168.311386 144.697983,172.175659 143.004883,176.289261 
	C142.494705,174.792435 142.026764,173.497467 141.610535,172.186096 
	C138.105621,161.143906 129.078186,154.759689 117.466484,155.123093 
	C98.635658,155.712418 84.215378,169.532166 85.130402,186.119919 
	C85.619766,194.991135 89.713501,202.315735 94.918518,209.688293 
	C94.664696,210.441483 94.518524,210.619919 94.372360,210.798355 
	C86.100769,208.222946 79.882126,212.023453 73.842003,217.006668 
	C76.583229,202.925781 78.078712,188.578491 82.925438,175.470322 
	C108.591957,106.054131 158.699310,65.636330 231.955139,56.318909 
	C284.745758,49.604462 331.790649,65.412666 371.779663,100.720322 
	C388.118286,115.146233 401.607086,132.039429 410.970856,151.944031 
	C402.067841,147.275635 398.759125,148.469452 394.817810,157.638214 
	C393.855560,159.876724 392.621185,161.998245 391.511932,164.173553 
	C391.072693,164.077484 390.633453,163.981430 390.194244,163.885361 
	C390.901672,157.468384 391.654633,151.055969 392.296387,144.632431 
	C392.593567,141.657700 392.930481,138.649948 392.798462,135.677185 
	C392.538605,129.825531 389.658173,125.775841 385.231140,124.435677 
	C380.525421,123.011139 374.335052,124.732315 371.805695,129.687424 
	C368.832611,135.511780 366.869934,141.941467 365.169861,148.296143 
	C363.935364,152.910721 364.115234,157.889069 363.108246,162.585968 
	C362.670807,164.626358 360.836853,166.367340 359.637207,168.244308 
	C359.210785,168.013626 358.784363,167.782928 358.357941,167.552246 
	C358.357941,162.485199 358.411377,157.417419 358.339966,152.351395 
	C358.288574,148.705505 358.382080,145.015152 357.842743,141.430115 
	C357.260956,137.563080 355.730347,133.906525 351.495270,132.598938 
	C347.003296,131.212051 342.760620,132.714020 340.329224,136.235352 
	C337.275665,140.657639 334.764618,145.683533 333.146912,150.805084 
	C331.459900,156.145966 330.744934,161.881332 330.302063,167.499191 
	C329.965637,171.766006 328.016052,174.353241 324.401367,175.920135 
	C320.269318,177.711288 316.077759,179.531174 311.246307,178.005386 
	C318.917145,174.316162 327.521271,171.835495 328.933258,161.724167 
	C329.694794,156.270844 328.898682,151.022842 325.246063,146.640274 
	C317.761566,137.660004 306.927368,139.653915 292.424957,153.348923 
	C293.558899,147.027679 294.684265,141.791000 295.384460,136.498077 
	C295.877563,132.770554 296.421295,128.866318 295.838837,125.217125 
	C294.522583,116.970726 286.317902,113.435150 279.889526,118.719429 
	C276.146301,121.796440 272.359985,126.390518 271.341461,130.920029 
	C268.213928,144.828400 266.412384,159.034943 264.077301,173.235413 
	C263.870605,172.995178 263.295197,172.535172 262.987213,171.937408 
	C257.374359,161.043228 248.014297,156.750931 236.029922,159.612564 
	C220.376175,163.350357 209.656830,176.332642 207.080902,194.654175 
	C206.552719,198.410995 205.982910,202.161957 204.535858,205.850159 
	C200.971451,195.175323 207.182678,183.664062 200.676346,173.727036 
	C211.947800,164.275070 214.188065,153.228195 206.709274,145.487198 
	C200.499069,139.059265 185.805191,140.492340 179.207016,148.169479 
	C172.842346,155.574921 174.863342,167.049057 184.025070,174.072342 
	C182.413422,176.958939 180.775284,179.892975 178.841171,183.357147 
	C176.601456,178.863861 174.334320,175.132767 168.415649,176.058563 
	C167.896667,175.907501 167.652847,175.664551 167.652847,175.664551 
M236.141556,128.694839 
	C236.581161,130.805496 237.020752,132.916168 237.460358,135.026825 
	C238.842850,128.172012 240.532120,121.415092 243.896072,115.632408 
	C247.570557,109.315933 255.021439,108.463531 261.642731,106.361977 
	C260.088013,106.179184 258.533325,105.996391 256.881195,105.074409 
	C255.092316,104.464928 253.317825,103.808640 251.512009,103.254303 
	C244.748474,101.178093 239.767990,97.236115 238.031830,90.088753 
	C237.364655,87.342163 237.100128,84.497757 236.431549,80.319122 
	C235.623672,82.477234 235.148651,83.293159 235.019012,84.160698 
	C233.185379,96.430092 228.212677,101.676788 216.286880,104.043343 
	C215.447189,104.209969 214.776489,105.228233 213.245026,105.955063 
	C211.981384,106.168556 210.717758,106.382057 208.456848,106.764046 
	C215.505692,108.338058 221.297897,109.631470 227.686172,111.246147 
	C233.509293,115.312477 234.344604,121.801353 236.141556,128.694839 
M265.632324,76.794067 
	C264.338867,78.847771 263.045410,80.901474 261.751953,82.955177 
	C261.313080,82.524200 260.874207,82.093216 260.435333,81.662239 
	C262.480560,83.093987 264.525787,84.525734 266.533569,85.931267 
	C268.408478,84.727943 270.512268,83.377731 272.757141,81.936958 
	C270.355499,79.966446 268.107819,78.122231 265.632324,76.794067 
z"/>
<path fill="#333232" opacity="1.000000" stroke="none" 
	d="
M197.827759,204.518631 
	C198.502838,208.894775 200.331604,211.695282 204.764313,211.098862 
	C209.089203,210.516968 211.769745,207.803421 211.759399,203.378754 
	C211.740326,195.221619 213.177612,187.443298 217.192932,180.322266 
	C223.032318,169.966309 231.760574,164.003662 243.912933,164.065048 
	C249.835434,164.094955 254.526932,166.831100 257.268585,172.210022 
	C260.224243,178.008728 261.264130,184.309357 257.224548,189.709702 
	C255.069443,192.590714 251.132568,194.840027 247.575256,195.798523 
	C242.829620,197.077179 241.418716,194.967667 242.633865,190.113113 
	C243.419312,186.975204 243.473648,183.790085 240.043625,182.415085 
	C236.493622,180.991989 233.490677,182.727814 231.427338,185.714142 
	C225.798203,193.861435 231.899872,206.852997 241.803726,207.949539 
	C253.960724,209.295547 267.828888,197.400223 269.094208,185.156067 
	C270.786926,168.775986 272.766052,152.415833 275.143921,136.123260 
	C275.716217,132.201981 277.748779,128.102737 280.246521,125.000618 
	C281.738861,123.147179 285.578064,122.178581 288.091675,122.566406 
	C289.393372,122.767242 291.157440,126.912872 290.902618,129.061646 
	C289.787750,138.462616 287.878021,147.766022 286.529999,157.144104 
	C285.868805,161.744141 285.590790,166.430176 285.597107,171.076675 
	C285.599030,172.498917 287.121521,173.919098 287.947662,175.340240 
	C289.597992,174.220383 292.102386,173.450241 292.732056,171.912445 
	C294.355865,167.946671 294.851868,163.530731 296.346130,159.497559 
	C298.637573,153.312805 302.504211,148.481567 309.383850,146.865692 
	C315.549591,145.417496 320.651306,147.522324 322.825256,152.496429 
	C325.384186,158.351334 323.952911,164.713730 318.858063,168.048309 
	C316.263336,169.746582 313.213196,170.823715 310.261383,171.881577 
	C307.071716,173.024689 304.961365,174.902985 305.363525,178.430710 
	C305.791016,182.180420 308.450775,183.851013 311.971069,183.986526 
	C319.049652,184.259018 325.629150,182.275742 330.959076,177.730072 
	C333.101776,175.902664 334.444275,172.561584 335.093201,169.671906 
	C336.692566,162.549698 337.352203,155.210861 339.064819,148.122269 
	C339.804657,145.060043 341.745941,141.950104 343.964203,139.658096 
	C347.796356,135.698471 352.236725,137.160645 352.768066,142.622375 
	C353.312408,148.217789 352.796600,153.916260 352.746368,159.569626 
	C352.727203,161.728775 352.178650,164.066635 352.826935,166.003143 
	C353.690430,168.582489 355.640533,172.936981 356.852539,172.847672 
	C360.099121,172.608383 364.082275,171.157928 366.112366,168.774368 
	C368.136688,166.397552 368.368469,162.344971 368.989929,158.954483 
	C370.157379,152.585358 370.679962,146.077179 372.194244,139.801422 
	C372.933838,136.736084 374.779510,133.529434 377.040314,131.326660 
	C381.379395,127.099037 386.893158,129.058746 387.446564,135.063004 
	C387.867401,139.628738 387.037292,144.325974 386.602142,148.949493 
	C386.227997,152.925430 385.413025,156.867661 385.184784,160.847260 
	C384.968750,164.614761 384.358826,169.339386 388.959656,170.652985 
	C393.274078,171.884827 395.204071,167.718750 397.033112,164.585449 
	C398.453064,162.152985 399.242767,159.313797 400.869781,157.057175 
	C401.704041,155.900177 403.826782,155.007431 405.238312,155.163239 
	C406.192902,155.268600 407.842712,157.627548 407.610870,158.606522 
	C405.318146,168.287994 402.768768,177.911636 400.101501,187.498642 
	C399.630249,189.192505 398.448547,190.780762 397.301941,192.177307 
	C393.935577,196.277557 389.940735,198.925720 384.588135,196.920303 
	C383.003479,205.270996 382.027130,213.744705 379.720673,221.839417 
	C375.620575,236.229294 364.769867,243.424698 350.521332,242.039658 
	C342.786530,241.287827 337.657410,236.901321 334.979645,229.766403 
	C332.164642,222.265869 331.640625,214.821548 336.804047,207.941132 
	C337.165222,207.459824 337.852997,207.223572 338.377441,206.880859 
	C347.997925,218.875427 361.456299,217.640335 369.178864,204.047455 
	C372.862488,197.563736 374.323120,190.656952 372.059021,183.431564 
	C371.570801,183.300766 371.082581,183.169968 370.594360,183.039154 
	C369.983643,184.721085 369.228088,186.366089 368.788208,188.091553 
	C367.169250,194.441895 364.412201,199.957672 358.312012,203.177322 
	C349.684448,207.730881 342.140991,205.204315 338.130188,196.414551 
	C337.816589,195.727249 337.512909,195.035446 336.996918,193.881058 
	C334.982727,197.739075 333.576996,201.293076 331.422424,204.312790 
	C329.331146,207.243835 326.801453,210.092010 323.885376,212.160355 
	C315.980560,217.767197 308.619934,216.347244 303.442108,208.165894 
	C300.614594,203.698273 298.859100,198.560287 296.135101,194.015320 
	C294.948090,192.034698 292.543243,190.783966 290.691467,189.201767 
	C289.801880,191.639816 288.019867,194.151016 288.212433,196.500381 
	C288.588867,201.093079 290.387238,205.551407 291.019897,210.144852 
	C292.121277,218.142273 289.372955,222.326019 282.737549,223.677460 
	C277.104187,224.824783 272.821350,221.656464 270.464813,214.565155 
	C270.003357,213.176544 269.634216,211.757263 269.144928,210.087234 
	C265.744720,214.682220 262.820953,219.205154 259.322144,223.227966 
	C254.035034,229.306885 247.354630,233.130447 239.205750,234.257889 
	C228.807037,235.696579 221.669342,230.867569 216.022034,222.009354 
	C214.573273,225.508118 213.837311,228.852783 211.991409,231.389877 
	C208.932800,235.593765 205.765488,240.199966 201.548950,242.969666 
	C194.845047,247.373215 188.226974,244.848404 184.435226,237.749908 
	C183.659637,236.297928 183.063034,234.750336 182.039505,232.484253 
	C180.615143,235.176559 179.456406,237.394455 178.272720,239.598953 
	C174.854858,245.964294 170.251068,250.998566 163.105499,253.240906 
	C154.889679,255.819107 148.559662,253.102722 145.066345,245.327026 
	C141.818253,238.097244 141.690155,230.479294 142.484879,222.771072 
	C143.286316,214.997665 144.090302,207.224533 144.913895,199.250641 
	C143.292908,198.749878 141.346863,198.701950 140.329865,197.705658 
	C138.779831,196.187256 137.401886,194.123383 136.917068,192.063690 
	C136.714310,191.202362 138.780304,189.331467 140.172180,188.655304 
	C145.297028,186.165787 147.775803,181.966934 148.950317,176.641251 
	C149.555450,173.897324 150.153854,171.068100 151.346970,168.558731 
	C152.863068,165.370071 156.096207,163.593582 159.183472,165.101364 
	C160.926559,165.952682 162.177078,169.260910 162.344925,171.557770 
	C162.612457,175.218628 161.791641,178.959015 161.366196,183.332642 
	C163.765106,182.837463 165.181610,182.506729 166.612411,182.258072 
	C169.246841,181.800232 172.177185,180.093887 173.287735,184.591019 
	C174.381729,189.021164 173.217377,193.048096 169.782852,194.359604 
	C167.307709,195.304779 164.645737,195.767517 162.185867,196.744446 
	C157.084747,198.770294 155.092346,206.375015 157.574310,213.789673 
	C159.386459,219.203323 163.599976,221.493591 169.352982,220.191956 
	C175.912750,218.707779 179.648834,214.329895 180.639618,207.295090 
	C181.635803,200.221848 182.546799,193.117874 184.030777,186.141296 
	C184.624924,183.348068 186.235306,180.481155 188.166504,178.361542 
	C189.509155,176.887863 192.457123,175.644699 194.191711,176.117783 
	C195.822021,176.562469 197.733292,179.315826 197.889557,181.189438 
	C198.328659,186.454453 197.926285,191.789566 197.856934,197.097046 
	C197.826553,199.422165 197.798965,201.747314 197.827759,204.518631 
z"/>
<path fill="#E16539" opacity="1.000000" stroke="none" 
	d="
M147.947845,380.468323 
	C160.254120,370.512939 166.093170,356.968842 169.141266,341.307190 
	C171.287323,346.756165 172.828354,351.755920 175.160080,356.354706 
	C179.520294,364.954346 185.661850,368.214020 193.623520,366.851257 
	C201.986862,365.419769 207.284058,359.749084 208.225555,350.215759 
	C208.772644,344.676086 208.325089,339.038177 208.325089,332.151520 
	C209.476578,333.990662 210.227676,334.762390 210.491928,335.675110 
	C216.767197,357.350739 239.916138,362.464172 257.486206,346.788727 
	C260.054688,344.497253 262.158020,341.575256 264.064911,338.674408 
	C267.848297,332.918915 267.729675,332.840942 274.389343,330.406464 
	C284.202423,349.389435 308.139191,344.518066 319.299194,322.003204 
	C327.746338,330.184845 337.640015,332.092621 348.679871,328.762970 
	C359.245178,325.576416 366.517822,318.231354 372.823914,309.266479 
	C386.284821,321.177643 399.714233,317.859833 413.489746,310.445923 
	C401.409149,337.427368 383.543793,359.826782 359.909058,377.152527 
	C315.758362,409.517639 266.611176,420.240417 212.940262,408.808350 
	C189.402496,403.794739 167.717651,394.259491 147.947845,380.468323 
z"/>
<path fill="#333232" opacity="1.000000" stroke="none" 
	d="
M358.538513,285.424377 
	C352.012360,293.235107 343.579926,294.750366 334.146088,293.871918 
	C333.898956,298.976440 337.127594,299.854950 340.747986,300.173706 
	C352.586365,301.216003 365.828766,293.109436 370.654449,281.512787 
	C374.100494,273.231628 376.820129,264.645630 380.337463,256.397614 
	C382.404755,251.549896 384.948608,246.760925 388.093018,242.554733 
	C391.757751,237.652557 398.815796,236.411545 403.916779,238.812408 
	C409.105072,241.254379 409.871735,245.303146 405.902435,249.298523 
	C400.327423,254.910172 400.337433,255.653870 405.246155,261.662262 
	C408.818665,266.035065 412.235077,270.535431 416.582672,276.077118 
	C418.614990,273.429779 420.872803,271.027252 422.465057,268.243958 
	C423.736359,266.021759 424.915314,263.677429 427.560028,265.294586 
	C428.855072,266.086456 430.013763,269.072113 429.530182,270.479401 
	C426.577484,279.072632 423.916840,287.918030 419.642487,295.863647 
	C415.148621,304.217316 407.229950,309.147186 397.746033,311.045959 
	C386.013824,313.394958 379.745819,310.396515 372.719513,299.394379 
	C369.242828,304.248413 366.354828,309.952454 361.940094,313.985260 
	C357.304749,318.219635 351.573883,321.921570 345.667145,323.950653 
	C335.164734,327.558563 326.274719,323.595825 320.294281,314.311798 
	C319.616272,313.259216 319.024231,312.151245 318.131195,310.621613 
	C316.196075,314.903015 314.666718,318.725372 312.778870,322.361603 
	C309.876465,327.952148 305.855499,332.533722 299.936554,335.153381 
	C290.394409,339.376678 282.897827,336.371429 278.988129,326.710083 
	C278.317596,325.053192 277.818848,323.326782 277.375244,322.026642 
	C272.981140,324.223969 268.687775,326.176422 264.619812,328.520111 
	C263.349915,329.251740 262.553772,330.964233 261.771423,332.357269 
	C257.494354,339.973083 251.992599,346.217102 243.448471,349.168365 
	C231.655136,353.241943 220.763702,348.215454 216.285217,336.627625 
	C210.323776,321.202759 215.160858,298.840393 227.164276,287.467010 
	C229.659134,285.103119 232.642120,283.042877 235.745193,281.569183 
	C248.676376,275.427917 259.743774,279.996429 264.254272,293.614716 
	C266.112305,299.224579 266.704193,305.253784 267.994598,311.705292 
	C281.670074,305.863068 276.506226,292.507599 279.306244,283.437378 
	C276.265289,280.823425 273.621429,279.038147 271.744354,276.650116 
	C271.156097,275.901733 272.223480,272.459015 273.229523,272.075226 
	C280.057770,269.470184 282.633972,264.094574 283.878357,257.525543 
	C284.275726,255.427734 284.533936,252.821396 285.885162,251.501495 
	C287.825195,249.606445 290.716003,247.710999 293.185455,247.731003 
	C294.474121,247.741440 296.569458,251.765167 296.805634,254.125748 
	C297.171234,257.780151 296.257385,261.562500 295.818726,265.966614 
	C298.255127,265.536865 299.838959,265.344147 301.377441,264.966705 
	C303.962036,264.332581 306.594330,263.080841 307.780701,267.020905 
	C309.044800,271.219116 307.762848,275.650024 304.557739,277.009155 
	C303.191833,277.588379 301.677643,277.812927 300.238312,278.224823 
	C292.194794,280.526703 289.959778,284.506836 291.465057,293.828186 
	C292.511902,300.310455 295.906647,303.455994 301.621490,303.239136 
	C308.882721,302.963562 314.440216,297.544434 314.967651,290.324188 
	C315.758881,279.492767 319.323639,269.879730 327.440582,262.293701 
	C332.640564,257.433777 338.874695,254.836823 345.885162,254.409897 
	C357.577026,253.697830 365.814331,264.883484 362.530029,277.059967 
	C361.767883,279.885529 360.047607,282.452637 358.538513,285.424377 
M387.389954,262.779053 
	C385.033356,267.545685 382.502136,272.237610 380.414398,277.119202 
	C379.678467,278.839966 379.169220,281.846375 380.084839,282.803040 
	C381.420441,284.198486 384.175049,284.911865 386.256439,284.786041 
	C391.717346,284.456085 395.640656,279.803802 394.226532,274.508118 
	C393.135376,270.421844 390.219513,266.822845 387.389954,262.779053 
M233.035950,309.920563 
	C233.033752,311.244171 232.879120,312.588440 233.054993,313.887939 
	C233.955002,320.537781 239.534531,323.006866 245.053482,319.103882 
	C249.400528,316.029602 250.798767,311.542328 250.158524,306.431519 
	C249.474960,300.974976 244.835220,297.993134 240.132797,300.769562 
	C237.189651,302.507263 235.435776,306.259216 233.035950,309.920563 
M345.537018,280.897858 
	C347.379883,278.002441 348.286041,274.626770 345.388550,272.399384 
	C343.680511,271.086395 339.945709,270.527985 338.253052,271.533508 
	C335.918762,272.920166 334.086090,275.912323 333.175385,278.601715 
	C332.743103,279.878143 334.939941,283.529419 335.951019,283.531494 
	C338.972534,283.537689 341.996643,282.272614 345.537018,280.897858 
z"/>
<path fill="#323232" opacity="1.000000" stroke="none" 
	d="
M110.213425,341.943054 
	C113.077400,340.530090 114.887856,340.220581 116.514763,343.517578 
	C118.720093,347.986725 124.016975,350.327972 129.394638,348.529419 
	C134.272125,346.898132 139.677307,344.603485 142.980164,340.923309 
	C153.098190,329.649506 156.530609,315.940430 153.946976,300.988159 
	C152.719070,293.881927 148.434082,290.761353 142.642502,291.883484 
	C138.030731,292.777008 134.835052,296.373688 134.694550,300.828827 
	C134.542892,305.637238 136.948654,308.960083 141.743240,310.257904 
	C146.340942,311.502441 145.262146,315.043274 144.537735,317.874847 
	C142.864166,324.416382 138.264923,328.359344 131.821991,329.950897 
	C124.729057,331.703033 118.584503,329.767548 113.834846,324.181976 
	C108.820076,318.284637 107.240707,311.201019 107.601616,303.658478 
	C107.973801,295.880280 110.876892,289.002045 116.253777,283.420044 
	C126.162804,273.133087 138.454559,268.259735 152.677673,269.113953 
	C161.797424,269.661652 169.023972,274.664001 173.294373,282.372406 
	C177.924164,290.729584 181.116302,299.884979 184.893692,308.710175 
	C185.347641,309.770752 185.364380,311.039215 185.907471,312.034760 
	C186.395691,312.929779 187.329117,313.581909 188.066162,314.341187 
	C188.695175,313.319183 189.769836,312.333435 189.856506,311.267334 
	C190.016037,309.304840 189.590363,307.295471 189.416107,305.304993 
	C188.385391,293.532166 189.297424,281.998047 193.993744,271.010620 
	C199.675369,257.718018 212.011856,249.487869 225.170029,250.043854 
	C233.833664,250.409927 239.399780,255.886993 239.517532,264.161865 
	C239.621841,271.493042 232.354477,278.599579 225.435852,276.851746 
	C217.987701,274.970154 213.319229,278.486481 210.897568,284.085999 
	C207.712509,291.450775 205.105042,299.417236 204.227234,307.343994 
	C202.968460,318.711334 203.509125,330.276764 203.252182,341.756958 
	C203.181519,344.914154 203.340805,348.126831 202.807434,351.212585 
	C201.790665,357.095123 197.746002,360.927002 192.281799,361.803070 
	C187.316528,362.599182 182.397598,360.606171 180.270813,354.879791 
	C176.877808,345.744110 174.562958,336.192047 172.088364,326.738556 
	C170.997635,322.571625 170.722641,318.197052 169.894241,313.952515 
	C169.577332,312.328674 168.749298,310.804596 168.154205,309.235077 
	C167.522522,309.272888 166.890839,309.310699 166.259155,309.348480 
	C166.009491,311.595673 165.523621,313.845551 165.549469,316.089569 
	C165.690170,328.304779 164.914291,340.401886 160.989120,352.079712 
	C155.525131,368.335724 145.325317,379.745911 128.000076,383.571716 
	C117.033592,385.993347 106.553917,380.543488 102.257484,370.364258 
	C97.738029,359.656647 100.782814,348.321716 110.213425,341.943054 
z"/>
<path fill="#E1673B" opacity="1.000000" stroke="none" 
	d="
M297.285034,208.750595 
	C298.181458,209.941116 299.082428,211.128250 299.973602,212.322678 
	C306.170715,220.628647 313.201660,222.594116 322.707855,218.651443 
	C324.211243,218.027939 325.679077,217.318802 327.575775,216.463211 
	C327.680969,218.576096 327.727295,220.335236 327.862183,222.087555 
	C329.336914,241.250748 344.900543,251.687775 363.227539,246.016937 
	C374.654938,242.481003 381.130554,234.439758 384.667267,223.520233 
	C385.435852,221.147156 386.298859,218.733109 386.555389,216.279068 
	C387.337860,208.794327 388.496460,202.563919 397.054321,198.813141 
	C401.491058,196.868591 404.841888,190.167389 406.607941,184.917007 
	C409.612549,175.984589 410.978363,166.500916 413.358734,157.089035 
	C429.071686,189.694504 434.436279,223.963608 429.124939,259.834564 
	C422.514801,259.099579 421.821014,259.494415 416.657593,267.252686 
	C413.447845,263.354156 410.349823,259.591309 407.090607,255.632645 
	C408.449707,254.166473 409.605743,252.994064 410.678223,251.749634 
	C415.587311,246.053665 414.519531,239.237091 408.107269,235.187317 
	C400.873596,230.618759 390.323486,231.477341 384.984558,238.580460 
	C380.274567,244.846832 377.182953,252.362411 373.638092,259.457001 
	C372.020203,262.694977 371.031494,266.247345 369.349640,270.748352 
	C368.624054,268.818848 368.175995,267.921478 367.945862,266.971344 
	C364.559204,252.990509 352.898071,246.302155 339.010773,250.245468 
	C327.384674,253.546692 319.451324,261.092041 314.052338,271.901947 
	C313.035370,268.452942 312.853302,264.842590 311.032166,262.514313 
	C309.268066,260.258911 305.818512,259.321808 302.107880,257.245331 
	C302.107880,257.079132 302.110168,255.462128 302.107452,253.845139 
	C302.097412,247.840988 299.534729,243.592499 295.167297,242.336136 
	C290.708221,241.053421 284.415192,243.547714 281.975616,248.223541 
	C280.233459,251.562637 279.716248,255.534912 278.016663,258.903900 
	C276.608826,261.694580 274.781738,264.876282 272.247528,266.379456 
	C265.532715,270.362427 263.170898,276.895691 268.894592,281.969635 
	C275.196350,287.556030 272.869995,293.256317 271.827942,299.555542 
	C267.797272,284.789276 261.470612,272.672302 243.339630,273.849243 
	C243.809967,269.896637 244.950287,266.112610 244.567032,262.489685 
	C243.205048,249.614532 232.608261,242.743637 218.652588,245.321365 
	C202.221863,248.356232 192.196869,258.494446 187.359894,274.096252 
	C185.912918,278.763519 185.037140,283.607849 183.623184,289.528961 
	C172.671875,266.591736 155.931808,258.591644 132.140961,267.051361 
	C135.521240,261.309448 138.601578,256.077026 141.639969,250.915833 
	C155.177704,264.112976 166.841614,262.329834 182.144379,244.171646 
	C187.922119,250.152466 194.677063,251.655762 202.501251,248.440384 
	C209.760834,245.457047 213.727173,239.385117 217.358032,233.006973 
	C236.905685,244.289352 249.187698,241.655304 267.676971,222.135773 
	C273.399933,229.985611 280.875824,230.919891 289.134888,226.836502 
	C296.043823,223.420624 297.023163,217.072525 296.732910,209.647095 
	C296.908203,209.079071 297.285034,208.750595 297.285034,208.750595 
z"/>
<path fill="#323232" opacity="1.000000" stroke="none" 
	d="
M113.499107,224.708008 
	C110.783401,220.533386 108.345924,216.607834 105.537491,212.968536 
	C102.192108,208.633408 97.959511,204.896286 95.103569,200.285477 
	C84.149239,182.600037 92.954712,164.065704 113.540848,160.855804 
	C123.781471,159.259033 131.202835,162.476883 135.184372,170.240234 
	C139.464294,178.585388 137.957230,188.847122 131.093613,195.521774 
	C129.870636,196.711090 127.112137,197.568542 125.746323,196.983414 
	C124.578094,196.482925 124.391808,193.693497 123.768379,191.917465 
	C122.718781,188.927368 122.307854,185.364700 120.355095,183.181854 
	C119.324692,182.030045 115.315971,182.639160 113.163452,183.599579 
	C109.654373,185.165237 108.784332,188.882507 109.948631,192.171463 
	C111.295723,195.976761 113.177460,199.832626 115.732880,202.915771 
	C119.861931,207.897583 124.976944,212.051483 129.238327,216.936462 
	C139.191727,228.346359 140.212723,245.381454 132.003540,257.750641 
	C123.949898,269.885498 106.554848,276.050873 92.745033,271.665100 
	C75.279320,266.118286 65.672646,239.757553 75.572929,224.290955 
	C76.895187,222.225266 78.673180,220.328705 80.598587,218.807541 
	C82.382507,217.398178 84.547493,216.207748 86.730873,215.650711 
	C88.478424,215.204849 91.074562,215.212784 92.220032,216.229462 
	C93.066940,216.981155 92.586227,219.820953 91.999344,221.484314 
	C90.267990,226.391388 91.345528,232.365768 95.084282,235.717545 
	C98.919670,239.155930 103.341675,239.079544 107.672531,237.047256 
	C112.664963,234.704483 114.469261,230.481537 113.499107,224.708008 
z"/>
<path fill="#393432" opacity="1.000000" stroke="none" 
	d="
M429.408813,260.003418 
	C434.436279,223.963608 429.071686,189.694504 413.422729,156.638931 
	C412.510620,154.987015 411.860504,153.625336 411.090637,152.103851 
	C401.607086,132.039429 388.118286,115.146233 371.779663,100.720322 
	C331.790649,65.412666 284.745758,49.604462 231.955139,56.318909 
	C158.699310,65.636330 108.591957,106.054131 82.925438,175.470322 
	C78.078712,188.578491 76.583229,202.925781 73.521179,217.230988 
	C71.320824,221.728867 69.140656,225.697083 66.484688,230.531311 
	C67.592628,201.078934 73.982674,173.989792 87.222946,148.687347 
	C103.767555,117.070259 127.073570,91.321091 158.305634,74.215157 
	C225.436417,37.447327 292.822418,38.333546 356.315125,81.490364 
	C419.892090,124.704453 443.577850,187.369934 435.456421,263.772308 
	C432.959534,262.212738 431.326111,261.192474 429.408813,260.003418 
z"/>
<path fill="#393432" opacity="1.000000" stroke="none" 
	d="
M147.619690,380.621460 
	C167.717651,394.259491 189.402496,403.794739 212.940262,408.808350 
	C266.611176,420.240417 315.758362,409.517639 359.909058,377.152527 
	C383.543793,359.826782 401.409149,337.427368 413.912231,310.283508 
	C416.003632,307.775726 418.063904,305.833344 419.943329,303.729431 
	C421.805847,301.644501 423.486145,299.396759 425.375977,297.060242 
	C424.163818,326.466583 371.845367,384.449097 329.329193,402.544220 
	C264.100281,430.305939 201.992188,423.592590 142.171799,384.255585 
	C144.430191,382.720062 145.860855,381.747314 147.619690,380.621460 
z"/>
<path fill="#E0673B" opacity="1.000000" stroke="none" 
	d="
M75.923927,266.450714 
	C86.194420,277.654358 98.961624,280.235382 114.036980,277.779572 
	C112.802864,279.364166 111.543724,280.929962 110.338638,282.536316 
	C101.741714,293.995941 100.042496,306.473389 105.153221,319.791992 
	C110.057747,332.573212 125.582062,342.803986 143.695953,330.010010 
	C144.029266,330.034973 143.978622,330.000519 143.978622,330.000519 
	C141.877548,336.224091 137.594666,340.359894 131.564117,342.695709 
	C125.908806,344.886230 123.327538,343.992157 119.892731,338.949921 
	C117.083031,334.825317 114.340233,334.590057 106.058426,337.644531 
	C101.654945,331.276398 97.475166,325.254761 94.030754,318.838348 
	C85.192444,302.373932 78.789742,285.008362 75.923927,266.450714 
z"/>
<path fill="#3A3533" opacity="1.000000" stroke="none" 
	d="
M75.759628,266.202087 
	C78.789742,285.008362 85.192444,302.373932 94.030754,318.838348 
	C97.475166,325.254761 101.654945,331.276398 105.704269,337.744019 
	C104.436569,339.297913 102.964394,340.585663 101.264221,342.072815 
	C81.883904,314.989258 70.757118,285.100708 67.336662,251.000763 
	C70.473557,256.680267 73.034439,261.316833 75.759628,266.202087 
z"/>
<path fill="#343434" opacity="1.000000" stroke="none" 
	d="
M205.130463,153.131561 
	C206.619492,158.227432 206.059296,162.649216 202.093079,165.761459 
	C197.595001,169.291016 192.328156,170.903427 186.636871,169.002869 
	C182.096741,167.486725 179.642456,161.121948 181.089005,155.419434 
	C182.279053,150.727997 187.376328,147.399323 194.426270,146.652756 
	C199.454422,146.120285 203.303223,147.578079 205.130463,153.131561 
z"/>
<path fill="#E1693D" opacity="1.000000" stroke="none" 
	d="
M166.660797,200.685150 
	C169.851761,199.674927 172.665771,198.781952 176.225204,197.652451 
	C175.797272,201.659988 175.707336,205.397491 174.934998,208.988205 
	C174.010086,213.288223 170.661041,215.454834 166.535370,215.044662 
	C164.936523,214.885681 162.491608,212.371536 162.337204,210.749008 
	C161.985992,207.058228 160.000992,202.078918 166.660797,200.685150 
z"/>
<path fill="#E1683D" opacity="1.000000" stroke="none" 
	d="
M301.000153,298.070190 
	C294.987671,296.440979 297.098755,291.771484 296.712463,288.131561 
	C296.363739,284.846100 298.784363,284.077545 301.273987,283.348450 
	C304.272034,282.470398 307.230286,281.456177 310.183350,280.508118 
	C310.098633,292.269348 310.015625,296.563171 301.000153,298.070190 
z"/>
<path fill="#E26A3F" opacity="1.000000" stroke="none" 
	d="
M105.847221,232.167755 
	C103.051109,232.022644 99.587769,232.561905 98.428581,231.175140 
	C96.960922,229.419296 96.969894,226.082565 97.065468,223.453964 
	C97.186150,220.134735 98.036324,216.842041 98.673752,212.908966 
	C101.564087,216.399521 104.840851,219.809006 107.435417,223.676193 
	C109.268745,226.408752 109.560669,229.663528 105.847221,232.167755 
z"/>
<path fill="#E26A3F" opacity="1.000000" stroke="none" 
	d="
M130.230499,202.746460 
	C131.878174,201.900085 133.155380,201.147476 134.459457,200.379044 
	C143.403290,204.986572 136.393036,212.383163 137.315826,218.603577 
	C132.870941,213.639740 128.426071,208.675919 123.574005,203.257370 
	C125.837898,203.107132 127.848961,202.973694 130.230499,202.746460 
z"/>
<path fill="#E27046" opacity="1.000000" stroke="none" 
	d="
M215.758850,293.893219 
	C213.662506,298.772430 211.756256,303.333557 209.767181,308.092865 
	C208.527695,294.581024 216.365219,280.215851 223.844620,282.395172 
	C221.190674,286.153046 218.569809,289.864105 215.758850,293.893219 
z"/>
<path fill="#E26E44" opacity="1.000000" stroke="none" 
	d="
M149.769577,307.771545 
	C148.992401,307.676605 148.219070,307.303131 147.479935,306.871094 
	C146.407852,306.244507 145.421478,305.421936 144.284332,304.970795 
	C143.273865,304.569824 141.574387,304.933014 141.129669,304.295624 
	C140.372116,303.209930 139.765793,301.375793 140.188400,300.275757 
	C140.693222,298.961639 142.227768,297.452454 143.536636,297.208099 
	C144.784515,296.975128 147.116623,297.912079 147.566177,298.945984 
	C148.722580,301.605560 149.099976,304.603851 149.769577,307.771545 
z"/>
<path fill="#E3754B" opacity="1.000000" stroke="none" 
	d="
M238.032867,197.605957 
	C240.737137,199.458817 243.220001,200.988831 246.357788,202.922424 
	C241.835419,203.242218 238.115921,202.871262 236.147720,198.793167 
	C234.345779,195.059586 233.568726,191.105072 236.786545,187.570648 
	C237.146576,190.982330 237.479034,194.132736 238.032867,197.605957 
z"/>
<path fill="#E37349" opacity="1.000000" stroke="none" 
	d="
M118.036911,194.443832 
	C117.458733,194.946686 116.451561,195.326859 116.401230,195.226608 
	C115.821457,194.071930 115.097961,192.867981 114.996864,191.629440 
	C114.900665,190.450821 115.388161,189.171844 115.857033,188.035172 
	C115.981232,187.734070 117.482864,187.638031 117.506126,187.712418 
	C117.913010,189.013275 118.298271,190.342987 118.449646,191.693176 
	C118.536758,192.470184 118.198929,193.294800 118.036911,194.443832 
z"/>
<path fill="#E0653A" opacity="1.000000" stroke="none" 
	d="
M95.042297,210.005859 
	C95.477493,210.268433 95.681259,210.788193 95.885025,211.307968 
	C95.506699,211.265015 95.128365,211.222076 94.561203,210.988739 
	C94.518524,210.619919 94.664696,210.441483 95.042297,210.005859 
z"/>
<path fill="#E1673B" opacity="1.000000" stroke="none" 
	d="
M296.717529,209.240662 
	C296.453888,208.839706 296.380920,208.277145 296.307983,207.714584 
	C296.585663,207.892487 296.863373,208.070389 297.213043,208.499435 
	C297.285034,208.750595 296.908203,209.079071 296.717529,209.240662 
z"/>
<path fill="#E0673B" opacity="1.000000" stroke="none" 
	d="
M144.053497,330.053711 
	C144.128906,329.781708 144.180084,329.490906 144.231293,329.200134 
	C144.248260,329.414459 144.265244,329.628784 144.130432,329.921814 
	C143.978622,330.000519 144.029266,330.034973 144.053497,330.053711 
z"/>
<path fill="#E0653A" opacity="1.000000" stroke="none" 
	d="
M168.017670,176.029877 
	C167.906250,176.074310 167.673798,175.996384 167.547104,175.791504 
	C167.652847,175.664551 167.896667,175.907501 168.017670,176.029877 
z"/>
<path fill="#E0653A" opacity="1.000000" stroke="none" 
	d="
M292.606415,154.606094 
	C292.483704,154.703766 292.427368,154.348511 292.427368,154.348511 
	C292.427368,154.348511 292.729126,154.508423 292.606415,154.606094 
z"/>
<path fill="#343332" opacity="1.000000" stroke="none" 
	d="
M214.027206,105.850479 
	C214.776489,105.228233 215.447189,104.209969 216.286880,104.043343 
	C228.212677,101.676788 233.185379,96.430092 235.019012,84.160698 
	C235.148651,83.293159 235.623672,82.477234 236.431549,80.319122 
	C237.100128,84.497757 237.364655,87.342163 238.031830,90.088753 
	C239.767990,97.236115 244.748474,101.178093 251.512009,103.254303 
	C253.317825,103.808640 255.092316,104.464928 256.520020,105.509567 
	C244.348816,106.892395 237.087799,114.757690 235.814682,127.981934 
	C234.344604,121.801353 233.509293,115.312477 227.295044,110.750168 
	C222.611694,108.786285 218.319443,107.318382 214.027206,105.850479 
z"/>
<path fill="#EAD4BD" opacity="1.000000" stroke="none" 
	d="
M235.978119,128.338379 
	C237.087799,114.757690 244.348816,106.892395 256.568726,105.879166 
	C258.533325,105.996391 260.088013,106.179184 261.642731,106.361977 
	C255.021439,108.463531 247.570557,109.315933 243.896072,115.632408 
	C240.532120,121.415092 238.842850,128.172012 237.460358,135.026825 
	C237.020752,132.916168 236.581161,130.805496 235.978119,128.338379 
z"/>
<path fill="#413A38" opacity="1.000000" stroke="none" 
	d="
M265.746216,76.536041 
	C268.107819,78.122231 270.355499,79.966446 272.757141,81.936958 
	C270.512268,83.377731 268.408478,84.727943 266.533569,85.931267 
	C264.525787,84.525734 262.480560,83.093987 260.435333,81.662239 
	C260.874207,82.093216 261.313080,82.524200 261.751953,82.955177 
	C263.045410,80.901474 264.338867,78.847771 265.746216,76.536041 
z"/>
<path fill="#E6C7AF" opacity="1.000000" stroke="none" 
	d="
M213.636108,105.902771 
	C218.319443,107.318382 222.611694,108.786285 226.997009,110.589539 
	C221.297897,109.631470 215.505692,108.338058 208.456848,106.764046 
	C210.717758,106.382057 211.981384,106.168556 213.636108,105.902771 
z"/>
<path fill="#E9D6C0" opacity="1.000000" stroke="none" 
	d="
M387.752441,262.893127 
	C390.219513,266.822845 393.135376,270.421844 394.226532,274.508118 
	C395.640656,279.803802 391.717346,284.456085 386.256439,284.786041 
	C384.175049,284.911865 381.420441,284.198486 380.084839,282.803040 
	C379.169220,281.846375 379.678467,278.839966 380.414398,277.119202 
	C382.502136,272.237610 385.033356,267.545685 387.752441,262.893127 
z"/>
<path fill="#EBD9C2" opacity="1.000000" stroke="none" 
	d="
M233.092102,309.513977 
	C235.435776,306.259216 237.189651,302.507263 240.132797,300.769562 
	C244.835220,297.993134 249.474960,300.974976 250.158524,306.431519 
	C250.798767,311.542328 249.400528,316.029602 245.053482,319.103882 
	C239.534531,323.006866 233.955002,320.537781 233.054993,313.887939 
	C232.879120,312.588440 233.033752,311.244171 233.092102,309.513977 
M242.895416,314.146698 
	C243.540680,313.015533 244.674271,311.902863 244.717941,310.748932 
	C244.785217,308.971588 244.105148,307.166016 243.742126,305.372406 
	C242.572815,305.760284 240.693893,305.840363 240.367142,306.593689 
	C239.383667,308.861084 239.004669,311.390625 238.389893,313.817963 
	C239.715927,314.097321 241.041977,314.376678 242.895416,314.146698 
z"/>
<path fill="#ECDAC3" opacity="1.000000" stroke="none" 
	d="
M345.278381,281.200928 
	C341.996643,282.272614 338.972534,283.537689 335.951019,283.531494 
	C334.939941,283.529419 332.743103,279.878143 333.175385,278.601715 
	C334.086090,275.912323 335.918762,272.920166 338.253052,271.533508 
	C339.945709,270.527985 343.680511,271.086395 345.388550,272.399384 
	C348.286041,274.626770 347.379883,278.002441 345.278381,281.200928 
z"/>
<path fill="#E26D43" opacity="1.000000" stroke="none" 
	d="
M242.631714,314.401367 
	C241.041977,314.376678 239.715927,314.097321 238.389893,313.817932 
	C239.004669,311.390625 239.383667,308.861084 240.367142,306.593689 
	C240.693893,305.840363 242.572815,305.760284 243.742126,305.372406 
	C244.105148,307.166016 244.785217,308.971588 244.717941,310.748932 
	C244.674271,311.902863 243.540680,313.015533 242.631714,314.401367 
z"/>
</svg>